<?xml version="1.0" encoding="utf-8"?>
<!-- Generator: Adobe Illustrator 16.0.0, SVG Export Plug-In . SVG Version: 6.00 Build 0)  -->
<!DOCTYPE svg PUBLIC "-//W3C//DTD SVG 1.1//EN" "http://www.w3.org/Graphics/SVG/1.1/DTD/svg11.dtd">
<svg version="1.1" xmlns="http://www.w3.org/2000/svg" xmlns:xlink="http://www.w3.org/1999/xlink" x="0px" y="0px" width="500px"
	 height="500px" viewBox="0 0 500 500" enable-background="new 0 0 500 500" xml:space="preserve">
<g id="BACKGROUND">
	<rect fill="#F1F1F2" width="500" height="500"/>
</g>
<g id="OBJECT">
	<path fill="#E6E7E8" d="M369.955,212.885c0,67.008-54.321,121.329-121.329,121.329c-67.008,0-158.451-10.271-158.451-77.281
		c0-67.007,91.443-165.376,158.451-165.376C315.634,91.556,369.955,145.877,369.955,212.885z"/>
	<path fill="#E6E7E8" d="M352.61,337.589c-45.763,0-82.863-30.728-82.863-68.63c0-37.904,7.016-89.629,52.78-89.629
		c45.764-0.001,112.946,51.726,112.946,89.629C435.474,306.863,398.374,337.589,352.61,337.589z"/>
	<g>
		<path fill="#FFFFFF" d="M286.652,107.209c0-3.913-3.173-7.087-7.087-7.087c-1.031,0-2.008,0.226-2.892,0.622
			c0.405-1.086,0.631-2.263,0.631-3.492c0-5.498-4.458-9.956-9.958-9.956c-3.046,0-5.77,1.369-7.597,3.524
			c-0.443-5.089-4.711-9.082-9.917-9.082c-5.307,0-9.643,4.153-9.938,9.386c-1.045-0.606-2.254-0.959-3.548-0.959
			c-3.914,0-7.087,3.173-7.087,7.086c0,1.036,0.228,2.016,0.626,2.902c-0.207-0.019-0.415-0.032-0.626-0.032
			c-3.913,0-7.086,3.174-7.086,7.087c0,3.532,2.586,6.452,5.968,6.99l-0.004,0.007h0.051c0.351,0.053,0.707,0.089,1.071,0.089
			c0.366,0,0.721-0.036,1.071-0.089h48.165c0.35,0.053,0.705,0.089,1.07,0.089s0.722-0.036,1.07-0.089h0.053l-0.001-0.008
			C284.067,113.66,286.652,110.74,286.652,107.209z"/>
		<path fill="#93B9D5" d="M282.784,110.927h-0.052c-0.35,0.053-0.705,0.089-1.07,0.089c-0.366,0-0.722-0.037-1.071-0.089h-48.164
			c-0.35,0.053-0.706,0.089-1.071,0.089c-0.364,0-0.72-0.037-1.071-0.089h-0.051l0.003-0.008c-3.38-0.538-5.967-3.458-5.967-6.99
			c0-0.648,0.095-1.274,0.257-1.871c-1.37,1.292-2.229,3.119-2.229,5.15c0,3.532,2.587,6.452,5.967,6.99l-0.003,0.007h0.052
			c0.35,0.053,0.705,0.089,1.07,0.089c0.365,0,0.722-0.036,1.071-0.089h48.165c0.35,0.053,0.705,0.089,1.069,0.089
			c0.365,0,0.722-0.036,1.072-0.089h0.052l-0.002-0.008c2.763-0.44,4.993-2.473,5.717-5.129c-1.014,0.956-2.307,1.621-3.747,1.851
			L282.784,110.927z"/>
		<path fill="#175C6C" d="M279.565,115.592c-0.365,0-0.737-0.028-1.165-0.088h-47.975c-0.877,0.125-1.512,0.122-2.407-0.011
			c-0.028-0.003-0.054-0.008-0.082-0.013v0c-4.092-0.651-7.061-4.13-7.061-8.271c0-4.239,3.162-7.753,7.251-8.308
			c-0.109-0.541-0.164-1.092-0.164-1.649c0-4.623,3.761-8.383,8.383-8.383c0.849,0,1.692,0.131,2.5,0.385
			c1.118-5.065,5.638-8.812,10.986-8.812c5.032,0,9.287,3.233,10.729,7.833c1.937-1.465,4.31-2.276,6.784-2.276
			c6.206,0,11.254,5.048,11.254,11.253c0,0.553-0.04,1.102-0.12,1.644c0.358-0.047,0.721-0.07,1.085-0.07
			c4.622,0,8.384,3.761,8.384,8.384c0,4.089-2.895,7.531-6.905,8.243c-0.099,0.029-0.202,0.046-0.308,0.05
			C280.312,115.563,279.928,115.592,279.565,115.592z M230.331,112.91h48.165c0.063,0,0.127,0.005,0.191,0.014
			c0.676,0.102,1.082,0.102,1.752,0.001c0.015-0.003,0.03-0.006,0.044-0.008c2.824-0.449,4.872-2.85,4.872-5.708
			c0-3.192-2.597-5.79-5.789-5.79c-0.814,0-1.608,0.171-2.361,0.508c-0.479,0.215-1.037,0.12-1.419-0.238
			c-0.381-0.358-0.51-0.91-0.327-1.4c0.363-0.973,0.549-1.995,0.549-3.038c0-4.775-3.884-8.659-8.66-8.659
			c-2.548,0-4.956,1.118-6.607,3.065c-0.339,0.4-0.884,0.557-1.383,0.397c-0.499-0.158-0.853-0.602-0.898-1.123
			c-0.386-4.428-4.174-7.897-8.625-7.897c-4.588,0-8.385,3.585-8.644,8.163c-0.025,0.45-0.283,0.854-0.679,1.068
			c-0.398,0.214-0.876,0.206-1.267-0.02c-0.883-0.513-1.886-0.783-2.897-0.783c-3.192,0-5.789,2.597-5.789,5.789
			c0,0.817,0.172,1.615,0.511,2.371c0.189,0.42,0.141,0.909-0.126,1.283c-0.267,0.375-0.712,0.583-1.171,0.54
			c-0.168-0.015-0.339-0.026-0.511-0.026c-3.192,0-5.79,2.597-5.79,5.79c0,2.858,2.05,5.26,4.875,5.709
			c0.009,0.001,0.017,0.003,0.026,0.004c0.003,0,0.006,0.001,0.009,0.001c0.679,0.102,1.083,0.102,1.757,0
			C230.202,112.915,230.267,112.91,230.331,112.91z"/>
	</g>
	<g>
		<path fill="#FFFFFF" d="M174.091,179.086c0-3.914-3.173-7.087-7.087-7.087c-1.031,0-2.009,0.225-2.892,0.622
			c0.406-1.087,0.631-2.263,0.631-3.493c0-5.498-4.458-9.956-9.958-9.956c-3.045,0-5.77,1.369-7.596,3.524
			c-0.444-5.089-4.712-9.082-9.917-9.082c-5.307,0-9.643,4.152-9.938,9.386c-1.045-0.606-2.254-0.959-3.548-0.959
			c-3.914,0-7.087,3.174-7.087,7.086c0,1.036,0.228,2.016,0.626,2.902c-0.207-0.018-0.414-0.032-0.626-0.032
			c-3.913,0-7.085,3.173-7.085,7.087c0,3.531,2.586,6.451,5.967,6.989l-0.004,0.008h0.052c0.35,0.052,0.706,0.088,1.07,0.088
			c0.366,0,0.722-0.037,1.072-0.088h48.163c0.351,0.052,0.706,0.088,1.071,0.088c0.366,0,0.721-0.037,1.071-0.088h0.053
			l-0.002-0.009C171.505,185.537,174.091,182.616,174.091,179.086z"/>
		<path fill="#93B9D5" d="M170.223,182.804h-0.052c-0.35,0.053-0.706,0.089-1.07,0.089c-0.365,0-0.722-0.037-1.072-0.089h-48.164
			c-0.35,0.053-0.705,0.089-1.07,0.089c-0.364,0-0.721-0.037-1.072-0.089h-0.051l0.003-0.008c-3.38-0.538-5.967-3.458-5.967-6.989
			c0-0.648,0.095-1.274,0.258-1.87c-1.37,1.292-2.229,3.118-2.229,5.15c0,3.531,2.587,6.451,5.967,6.989l-0.003,0.008h0.052
			c0.35,0.052,0.707,0.088,1.07,0.088c0.365,0,0.722-0.037,1.071-0.088h48.165c0.35,0.052,0.706,0.088,1.071,0.088
			c0.364,0,0.72-0.037,1.07-0.088h0.052l-0.002-0.009c2.764-0.439,4.995-2.472,5.717-5.129c-1.014,0.956-2.306,1.621-3.746,1.85
			L170.223,182.804z"/>
		<path fill="#175C6C" d="M167.004,187.468c-0.365,0-0.738-0.027-1.165-0.088h-47.975c-0.877,0.125-1.512,0.121-2.407-0.011
			c-0.028-0.003-0.054-0.007-0.082-0.012l0,0c-4.091-0.651-7.061-4.13-7.061-8.271c0-4.239,3.162-7.753,7.251-8.308
			c-0.109-0.541-0.164-1.092-0.164-1.65c0-4.623,3.761-8.383,8.383-8.383c0.85,0,1.692,0.131,2.5,0.385
			c1.118-5.064,5.639-8.812,10.986-8.812c5.032,0,9.288,3.233,10.73,7.833c1.937-1.466,4.31-2.276,6.783-2.276
			c6.206,0,11.254,5.048,11.254,11.253c0,0.553-0.04,1.102-0.12,1.644c0.358-0.047,0.72-0.07,1.084-0.07
			c4.624,0,8.383,3.761,8.383,8.384c0,4.089-2.894,7.531-6.903,8.243c-0.1,0.029-0.204,0.046-0.309,0.05
			C167.751,187.439,167.367,187.468,167.004,187.468z M117.77,184.786h48.163c0.065,0,0.129,0.005,0.192,0.015
			c0.677,0.102,1.082,0.102,1.752,0.001c0.014-0.002,0.029-0.005,0.044-0.007c2.823-0.45,4.872-2.851,4.872-5.708
			c0-3.193-2.597-5.79-5.79-5.79c-0.815,0-1.61,0.171-2.362,0.509c-0.477,0.216-1.036,0.12-1.417-0.238
			c-0.381-0.358-0.511-0.91-0.328-1.4c0.364-0.973,0.548-1.995,0.548-3.038c0-4.774-3.884-8.659-8.66-8.659
			c-2.548,0-4.956,1.118-6.607,3.066c-0.338,0.399-0.883,0.557-1.382,0.397c-0.5-0.159-0.854-0.602-0.899-1.124
			c-0.386-4.428-4.174-7.897-8.625-7.897c-4.588,0-8.385,3.585-8.643,8.163c-0.027,0.45-0.283,0.854-0.68,1.068
			c-0.396,0.214-0.876,0.206-1.266-0.02c-0.884-0.512-1.887-0.783-2.898-0.783c-3.192,0-5.789,2.597-5.789,5.789
			c0,0.817,0.172,1.615,0.512,2.37c0.188,0.42,0.141,0.909-0.126,1.284c-0.268,0.375-0.713,0.58-1.172,0.54
			c-0.168-0.014-0.338-0.026-0.511-0.026c-3.192,0-5.789,2.597-5.789,5.79c0,2.859,2.05,5.259,4.875,5.709
			c0.009,0.001,0.017,0.003,0.026,0.004c0.003,0,0.006,0.001,0.009,0.001c0.679,0.102,1.083,0.102,1.758,0
			C117.641,184.791,117.706,184.786,117.77,184.786z"/>
	</g>
	<g>
		<path fill="#FFFFFF" d="M387.025,162.808c0-3.914-3.173-7.087-7.087-7.087c-1.031,0-2.009,0.226-2.892,0.622
			c0.406-1.086,0.631-2.263,0.631-3.492c0-5.498-4.458-9.956-9.957-9.956c-3.046,0-5.771,1.369-7.597,3.524
			c-0.444-5.089-4.712-9.082-9.917-9.082c-5.308,0-9.644,4.153-9.938,9.386c-1.045-0.606-2.254-0.958-3.549-0.958
			c-3.913,0-7.087,3.173-7.087,7.086c0,1.036,0.228,2.016,0.626,2.902c-0.206-0.019-0.415-0.032-0.627-0.032
			c-3.911,0-7.085,3.173-7.085,7.087c0,3.532,2.587,6.451,5.967,6.989l-0.003,0.007h0.052c0.351,0.053,0.706,0.089,1.069,0.089
			c0.367,0,0.723-0.037,1.072-0.089h48.163c0.352,0.053,0.706,0.089,1.071,0.089c0.366,0,0.722-0.037,1.071-0.089h0.052
			l-0.001-0.008C384.441,169.258,387.025,166.338,387.025,162.808z"/>
		<path fill="#93B9D5" d="M383.158,166.525h-0.053c-0.35,0.052-0.705,0.088-1.07,0.088c-0.366,0-0.722-0.037-1.071-0.088H332.8
			c-0.35,0.052-0.705,0.088-1.071,0.088c-0.363,0-0.72-0.037-1.07-0.088h-0.052l0.004-0.008c-3.381-0.537-5.968-3.458-5.968-6.989
			c0-0.648,0.095-1.274,0.259-1.871c-1.371,1.292-2.229,3.119-2.229,5.15c0,3.532,2.587,6.451,5.968,6.989l-0.004,0.007h0.052
			c0.35,0.053,0.705,0.089,1.07,0.089s0.722-0.037,1.071-0.089h48.164c0.35,0.053,0.706,0.089,1.07,0.089
			c0.365,0,0.72-0.037,1.071-0.089h0.052l-0.002-0.008c2.763-0.439,4.993-2.473,5.717-5.129c-1.014,0.956-2.307,1.621-3.747,1.851
			L383.158,166.525z"/>
		<path fill="#175C6C" d="M379.938,171.19c-0.365,0-0.737-0.029-1.165-0.089h-47.975c-0.878,0.125-1.513,0.121-2.407-0.011
			c-0.027-0.003-0.054-0.008-0.081-0.013v0.001c-4.091-0.651-7.061-4.13-7.061-8.271c0-4.239,3.162-7.753,7.251-8.308
			c-0.109-0.541-0.164-1.091-0.164-1.649c0-4.622,3.76-8.383,8.383-8.383c0.849,0,1.692,0.131,2.501,0.385
			c1.118-5.064,5.638-8.813,10.986-8.813c5.032,0,9.287,3.233,10.729,7.834c1.937-1.466,4.31-2.277,6.785-2.277
			c6.205,0,11.254,5.048,11.254,11.253c0,0.553-0.041,1.102-0.12,1.644c0.357-0.047,0.72-0.07,1.084-0.07
			c4.622,0,8.384,3.761,8.384,8.384c0,4.088-2.895,7.531-6.904,8.243c-0.1,0.028-0.203,0.046-0.309,0.05
			C380.685,171.161,380.301,171.19,379.938,171.19z M330.704,168.508h48.163c0.064,0,0.129,0.005,0.192,0.014
			c0.676,0.102,1.082,0.102,1.753,0.001c0.014-0.003,0.028-0.006,0.043-0.008c2.824-0.449,4.873-2.849,4.873-5.707
			c0-3.193-2.598-5.79-5.79-5.79c-0.814,0-1.608,0.171-2.361,0.508c-0.478,0.216-1.037,0.121-1.419-0.237
			c-0.381-0.358-0.51-0.91-0.326-1.4c0.363-0.973,0.548-1.995,0.548-3.038c0-4.775-3.885-8.659-8.659-8.659
			c-2.549,0-4.956,1.117-6.608,3.065c-0.338,0.399-0.884,0.557-1.383,0.397c-0.498-0.159-0.853-0.602-0.898-1.124
			c-0.386-4.428-4.174-7.896-8.624-7.896c-4.589,0-8.386,3.585-8.645,8.162c-0.025,0.45-0.282,0.854-0.679,1.068
			c-0.397,0.214-0.876,0.207-1.267-0.02c-0.883-0.513-1.886-0.784-2.897-0.784c-3.192,0-5.789,2.597-5.789,5.79
			c0,0.817,0.172,1.615,0.512,2.371c0.188,0.42,0.141,0.909-0.127,1.284c-0.267,0.375-0.711,0.581-1.171,0.54
			c-0.168-0.015-0.338-0.026-0.513-0.026c-3.19,0-5.789,2.597-5.789,5.79c0,2.858,2.051,5.259,4.876,5.708
			c0.008,0.002,0.017,0.003,0.026,0.005c0.003,0,0.006,0.001,0.009,0.001c0.679,0.102,1.084,0.102,1.758,0
			C330.575,168.513,330.64,168.508,330.704,168.508z"/>
	</g>
	<text transform="matrix(1 0 0 1 194.4551 203.7734)" fill="#F05757" font-family="'BebasNeueBold'" font-size="93.1836">404</text>
	<text transform="matrix(1 0 0 1 199.8398 228.2236)" fill="#6E7C7D" font-family="'BebasNeueRegular'" font-size="20.3491">page not found</text>
	<g>
		<g>
			<g>
				<rect x="153.531" y="252.792" fill="#FFFFFF" width="13.726" height="133.932"/>
				<path fill="#698793" d="M160.394,235.324c-4.167,0-7.546,3.378-7.546,7.544v9.924h15.092v-9.924
					C167.939,238.702,164.561,235.324,160.394,235.324z"/>
				<circle fill="#F05757" cx="160.393" cy="225.361" r="9.962"/>
				<path opacity="0.5" fill="#FFFFFF" d="M158.539,218.522c5.502,0,9.962,4.461,9.962,9.962c0,0.88-0.125,1.729-0.34,2.541
					c1.265-1.67,2.024-3.744,2.024-6.001c0-5.501-4.459-9.962-9.961-9.962c-4.622,0-8.498,3.153-9.623,7.421
					C152.419,220.082,155.293,218.522,158.539,218.522z"/>
				<circle fill="#FFFFFF" cx="160.394" cy="225.361" r="3.669"/>
				<path fill="#175C6C" d="M167.939,254.09h-15.092c-0.716,0-1.296-0.581-1.296-1.298v-9.924c0-4.875,3.967-8.841,8.842-8.841
					s8.842,3.967,8.842,8.841v9.924C169.236,253.509,168.655,254.09,167.939,254.09z M154.145,251.496h12.498v-8.628
					c0-3.444-2.803-6.248-6.249-6.248s-6.249,2.804-6.249,6.248V251.496z"/>
				<path fill="#175C6C" d="M160.394,236.62c-6.208,0-11.259-5.051-11.259-11.259s5.051-11.259,11.259-11.259
					s11.259,5.05,11.259,11.259S166.602,236.62,160.394,236.62z M160.394,216.696c-4.779,0-8.665,3.887-8.665,8.665
					c0,4.779,3.886,8.666,8.665,8.666c4.778,0,8.665-3.887,8.665-8.666C169.059,220.583,165.171,216.696,160.394,216.696z"/>
				<rect x="153.531" y="299.412" fill="#93B9D5" width="13.726" height="9.501"/>
				<path fill="#175C6C" d="M167.256,388.543h-13.726c-0.716,0-1.297-0.581-1.297-1.298V245.234c0-0.716,0.581-1.296,1.297-1.296
					h13.726c0.717,0,1.296,0.58,1.296,1.296v142.011C168.553,387.962,167.973,388.543,167.256,388.543z M154.827,385.948h11.133
					V246.532h-11.133V385.948z"/>
			</g>
			<g>
				<rect x="332.354" y="252.792" fill="#FFFFFF" width="13.727" height="133.932"/>
				<path fill="#698793" d="M339.219,235.324c-4.168,0-7.546,3.378-7.546,7.544v9.924h15.091v-9.924
					C346.764,238.702,343.386,235.324,339.219,235.324z"/>
				<circle fill="#F05757" cx="339.218" cy="225.361" r="9.962"/>
				<path opacity="0.5" fill="#FFFFFF" d="M337.364,218.522c5.502,0,9.962,4.461,9.962,9.962c0,0.88-0.126,1.729-0.34,2.541
					c1.265-1.67,2.024-3.744,2.024-6.001c0-5.501-4.46-9.962-9.962-9.962c-4.622,0-8.498,3.153-9.623,7.421
					C331.245,220.082,334.118,218.522,337.364,218.522z"/>
				<circle fill="#FFFFFF" cx="339.218" cy="225.361" r="3.669"/>
				<path fill="#175C6C" d="M346.764,254.09h-15.091c-0.717,0-1.297-0.581-1.297-1.298v-9.924c0-4.875,3.967-8.841,8.843-8.841
					c4.875,0,8.842,3.967,8.842,8.841v9.924C348.061,253.509,347.48,254.09,346.764,254.09z M332.97,251.496h12.497v-8.628
					c0-3.444-2.803-6.248-6.248-6.248c-3.446,0-6.249,2.804-6.249,6.248V251.496z"/>
				<path fill="#175C6C" d="M339.219,236.62c-6.209,0-11.261-5.051-11.261-11.259s5.052-11.259,11.261-11.259
					c6.207,0,11.259,5.05,11.259,11.259S345.426,236.62,339.219,236.62z M339.219,216.696c-4.778,0-8.667,3.887-8.667,8.665
					c0,4.779,3.889,8.666,8.667,8.666c4.777,0,8.665-3.887,8.665-8.666C347.884,220.583,343.996,216.696,339.219,216.696z"/>
				<rect x="332.354" y="299.412" fill="#93B9D5" width="13.727" height="9.501"/>
				<path fill="#175C6C" d="M346.081,388.543h-13.727c-0.716,0-1.297-0.581-1.297-1.298V245.234c0-0.716,0.581-1.296,1.297-1.296
					h13.727c0.717,0,1.297,0.58,1.297,1.296v142.011C347.378,387.962,346.798,388.543,346.081,388.543z M333.652,385.948h11.132
					V246.532h-11.132V385.948z"/>
			</g>
		</g>
		<rect x="141.851" y="351.038" fill="#FFFFFF" width="215.909" height="19.021"/>
		<rect x="144.36" y="245.234" fill="#FFFFFF" width="210.891" height="53.173"/>
		<g>
			<polygon fill="#F05757" points="187.334,245.234 141.851,290.718 141.851,298.407 157.915,298.407 211.087,245.234 			"/>
			<polygon fill="#F05757" points="141.851,253.218 141.851,276.972 173.587,245.234 149.833,245.234 			"/>
			<polygon fill="#F05757" points="285.718,245.234 261.966,245.234 208.793,298.407 232.546,298.407 			"/>
			<polygon fill="#F05757" points="248.218,245.234 224.465,245.234 171.292,298.407 195.046,298.407 			"/>
			<polygon fill="#F05757" points="323.034,245.234 299.28,245.234 246.108,298.407 269.86,298.407 			"/>
			<polygon fill="#F05757" points="357.76,285.14 357.76,261.386 320.739,298.407 344.492,298.407 			"/>
			<polygon fill="#F05757" points="357.76,247.639 357.76,245.234 336.412,245.234 283.239,298.407 306.992,298.407 			"/>
		</g>
		<rect x="141.851" y="245.234" opacity="0.5" fill="#FFFFFF" width="215.909" height="5.513"/>
		<path fill="#175C6C" d="M357.76,299.705H141.851c-0.716,0-1.296-0.582-1.296-1.298v-53.173c0-0.716,0.58-1.296,1.296-1.296H357.76
			c0.716,0,1.297,0.58,1.297,1.296v53.173C359.057,299.123,358.476,299.705,357.76,299.705z M143.148,297.111h213.315v-50.58
			H143.148V297.111z"/>
		<g>
			<polygon fill="#F05757" points="152.873,351.038 141.851,362.06 141.851,370.06 150.17,370.06 169.191,351.038 			"/>
			<polygon fill="#F05757" points="196.822,351.038 180.504,351.038 161.482,370.06 177.8,370.06 			"/>
			<polygon fill="#F05757" points="223.748,351.038 207.43,351.038 188.409,370.06 204.727,370.06 			"/>
			<polygon fill="#F05757" points="251.377,351.038 235.06,351.038 216.04,370.06 232.356,370.06 			"/>
			<polygon fill="#F05757" points="280.743,351.038 264.425,351.038 245.404,370.06 261.723,370.06 			"/>
			<polygon fill="#F05757" points="308.373,351.038 292.055,351.038 273.033,370.06 289.353,370.06 			"/>
			<polygon fill="#F05757" points="336.948,351.038 320.63,351.038 301.609,370.06 317.928,370.06 			"/>
			<polygon fill="#F05757" points="357.76,357.855 357.76,351.038 348.26,351.038 329.238,370.06 345.558,370.06 			"/>
		</g>
		<path fill="#175C6C" d="M357.76,371.355H141.851c-0.716,0-1.296-0.581-1.296-1.296v-19.021c0-0.716,0.58-1.298,1.296-1.298H357.76
			c0.716,0,1.297,0.582,1.297,1.298v19.021C359.057,370.774,358.476,371.355,357.76,371.355z M143.148,368.762h213.315v-16.428
			H143.148V368.762z"/>
	</g>
	<path fill="#175C6C" d="M400.83,388.543H98.781c-0.715,0-1.296-0.581-1.296-1.298s0.581-1.297,1.296-1.297H400.83
		c0.715,0,1.297,0.58,1.297,1.297S401.545,388.543,400.83,388.543z"/>
	<g>
		<polygon fill="#F05757" points="414.581,377.93 397.157,305.942 394.807,305.942 390.47,305.942 388.119,305.942 370.692,377.93 
			360.179,377.93 360.179,387.246 425.096,387.246 425.096,377.93 		"/>
		<polygon fill="#F1F1F2" points="406.908,345.568 378.526,345.568 380.537,337.262 404.736,337.262 		"/>
		<rect x="374.226" y="354.933" fill="#F1F1F2" width="35.26" height="8.306"/>
		<polygon opacity="0.5" fill="#FFFFFF" points="409.485,377.93 392.717,305.942 396.622,305.942 414.581,377.93 		"/>
		<rect x="359.644" y="377.93" opacity="0.5" fill="#FFFFFF" width="64.917" height="4.57"/>
		<path fill="#175C6C" d="M424.561,388.543h-64.917c-0.717,0-1.297-0.581-1.297-1.297v-9.316c0-0.716,0.58-1.298,1.297-1.298h9.494
			l17.184-70.995c0.143-0.582,0.662-0.991,1.262-0.991h9.039c0.599,0,1.119,0.409,1.26,0.991l17.184,70.995h9.495
			c0.714,0,1.296,0.582,1.296,1.298v9.316C425.856,387.962,425.274,388.543,424.561,388.543z M360.939,385.948h62.324v-6.722h-9.218
			c-0.599,0-1.119-0.409-1.26-0.991l-17.186-70.995h-6.997l-17.187,70.995c-0.14,0.582-0.661,0.991-1.26,0.991h-9.218V385.948z"/>
		<path fill="#175C6C" d="M397.613,379.227h-26.921c-0.716,0-1.296-0.58-1.296-1.297c0-0.716,0.58-1.298,1.296-1.298h26.921
			c0.717,0,1.297,0.582,1.297,1.298C398.91,378.646,398.33,379.227,397.613,379.227z"/>
		<path fill="#175C6C" d="M420.526,379.227h-15.348c-0.717,0-1.297-0.58-1.297-1.297c0-0.716,0.58-1.298,1.297-1.298h15.348
			c0.714,0,1.296,0.582,1.296,1.298C421.822,378.646,421.24,379.227,420.526,379.227z"/>
	</g>
	<g>
		<polygon fill="#F05757" points="129.99,377.93 112.565,305.942 110.213,305.942 105.877,305.942 103.526,305.942 86.101,377.93 
			75.587,377.93 75.587,387.246 140.503,387.246 140.503,377.93 		"/>
		<polygon fill="#F1F1F2" points="122.316,345.568 93.935,345.568 95.945,337.262 120.144,337.262 		"/>
		<rect x="89.634" y="354.933" fill="#F1F1F2" width="35.259" height="8.306"/>
		<polygon opacity="0.5" fill="#FFFFFF" points="124.893,377.93 108.126,305.942 112.029,305.942 129.99,377.93 		"/>
		<rect x="75.051" y="377.93" opacity="0.5" fill="#FFFFFF" width="64.917" height="4.57"/>
		<path fill="#175C6C" d="M139.968,388.543H75.051c-0.716,0-1.296-0.581-1.296-1.297v-9.316c0-0.716,0.581-1.298,1.296-1.298h9.494
			l17.185-70.995c0.141-0.582,0.662-0.991,1.26-0.991h9.039c0.599,0,1.12,0.409,1.261,0.991l17.184,70.995h9.493
			c0.716,0,1.297,0.582,1.297,1.298v9.316C141.265,387.962,140.684,388.543,139.968,388.543z M76.348,385.948h62.323v-6.722h-9.217
			c-0.599,0-1.12-0.409-1.26-0.991l-17.185-70.995h-6.998l-17.186,70.995c-0.141,0.582-0.661,0.991-1.26,0.991h-9.217V385.948z"/>
		<path fill="#175C6C" d="M113.021,379.227h-26.92c-0.716,0-1.297-0.58-1.297-1.297c0-0.716,0.581-1.298,1.297-1.298h26.92
			c0.717,0,1.297,0.582,1.297,1.298C114.318,378.646,113.738,379.227,113.021,379.227z"/>
		<path fill="#175C6C" d="M135.934,379.227h-15.347c-0.716,0-1.297-0.58-1.297-1.297c0-0.716,0.581-1.298,1.297-1.298h15.347
			c0.716,0,1.297,0.582,1.297,1.298C137.23,378.646,136.649,379.227,135.934,379.227z"/>
	</g>
	<text transform="matrix(1 0 0 1 114.667 428.0273)" fill="#6E7C7D" font-family="'Roboto-Condensed'" font-size="15.0502">The Page You Requested Could Not Be Found.</text>
</g>
<g id="DESIGNED_BY_FREEPIK_1_">
</g>
</svg>
