<?xml version="1.0" encoding="utf-8"?>
<!-- Generator: Adobe Illustrator 16.0.0, SVG Export Plug-In . SVG Version: 6.00 Build 0)  -->
<!DOCTYPE svg PUBLIC "-//W3C//DTD SVG 1.1//EN" "http://www.w3.org/Graphics/SVG/1.1/DTD/svg11.dtd">
<svg version="1.1" id="Layer_1" xmlns="http://www.w3.org/2000/svg" xmlns:xlink="http://www.w3.org/1999/xlink" x="0px" y="0px"
	 width="64px" height="64px" viewBox="0 0 64 64" enable-background="new 0 0 64 64" xml:space="preserve">
<g>
	<path fill="#FFFFFF" d="M54.7,21.1c0-0.3,0.1-0.5,0.1-0.7c0-0.1,0-0.2,0.1-0.3c0.1-0.4,0.4-0.6,0.7-0.8c0.3-0.1,0.6-0.2,0.8-0.2
		c0.1,0,0.1,0,0.2,0C56.1,13,55.9,7.5,55.7,5.4c0-0.3,0-0.5,0-0.6c-0.1,0-0.2-0.1-0.5-0.1c-0.2,0-0.5,0-0.9,0.2l0,0l0,0
		c0,0,0,0-0.1,0.1c0,0.1-0.1,0.2-0.2,0.3c-0.1,0.2-0.2,0.6-0.3,0.9c-0.1,0.7-0.2,1.4-0.2,1.5l0,0l0,0.3c0.5,0,0.8,0.1,0.8,0.1
		l0.2,0.1l0,0.2c0,0,0,0,0,0h0v0.3v0V9h0c0,0.3,0,0.7,0,1.1c0,0.5,0,1-0.1,1.4c0,0.1,0,0.2-0.1,0.3L54.4,12l-0.2,0l0,0
		c0,0,0,0-0.1,0c-0.1,0-0.2,0-0.3,0c-0.1,0-0.2,0.1-0.3,0.2c-0.1,0-0.1,0.1-0.1,0.2c0,0.1-0.1,0.2-0.1,0.4c0,0.2-0.1,0.4-0.1,0.6
		c-0.1,0.5-0.1,0.9-0.2,1.3c0,0,0,0,0,0h1.7L54.7,21.1z"/>
	<path fill="#FFFFFF" d="M55.1,34.4l2,0c-0.1-4.1-0.4-9.6-0.6-14.7c-0.1,0-0.1,0-0.2,0c-0.2,0-0.4,0-0.5,0.1
		c-0.2,0.1-0.3,0.2-0.4,0.5c0,0,0,0.1,0,0.2c0,0.1,0,0.2,0,0.3c0,0.2,0,0.5-0.1,0.9c0,0.7-0.1,1.7-0.1,2.7c0,2.1-0.1,4.6-0.1,6.6
		c0,1.1,0,2,0,2.6C55.1,34,55.1,34.2,55.1,34.4z"/>
	<path fill="#FFFFFF" d="M52.7,11.6c0,0.3,0,0.6-0.1,0.9c0-0.2,0.1-0.3,0.1-0.4c0.1-0.2,0.2-0.3,0.3-0.4c0.1-0.1,0.3-0.2,0.4-0.2
		c0.2-0.1,0.4-0.1,0.5-0.1c0-0.1,0-0.1,0-0.2c0-0.2,0-0.5,0.1-0.8c0-0.5,0-1,0-1.3c-0.2,0-0.4,0.1-0.5,0.2c-0.2,0.2-0.5,0.4-0.6,0.9
		C52.8,10.5,52.7,11.1,52.7,11.6z"/>
	<path fill="#FFFFFF" d="M52,21.6c-0.3,0-0.7,0-1,0.2c0,0,0,0-0.1,0c0,0,0,0.1,0,0.1c0,0,0.1,0,0.1,0c0.2,0.1,0.5,0.1,0.9,0.1
		c0.3,0,0.7,0,1,0c0.3,0,0.6,0,0.8,0c0,0,0,0,0,0c-0.2-0.1-0.3-0.2-0.4-0.3C52.9,21.7,52.4,21.6,52,21.6z"/>
	<path fill="#FFFFFF" d="M54,15.3h-1.3l-0.6,0l0-0.3c0,0-0.1-0.8-0.1-1.7c0-0.5,0-1.1,0.1-1.7c0.1-0.6,0.1-1.1,0.3-1.6
		c0.2-0.6,0.5-1,0.9-1.3c0.1,0,0.1-0.1,0.2-0.1c0,0,0,0,0,0c-0.4,0-0.8,0.1-1.2,0.3C51.8,9,51.4,9.4,51.1,10c0,0,0,0.1,0,0.2
		c0,0.1,0,0.2,0,0.3c0,0.3,0,0.6,0,0.9c0,1.1,0.1,2.6,0.2,3.2c0,0.2,0,0.3,0,0.3l0,0.2L51,15.3l0,0l0,0c0,0,0,0-0.1,0.1
		c-0.1,0-0.1,0.1-0.1,0.1l0,0c0,0,0,0,0,0.1c0,0.1,0,0.1,0,0.2c0,1,0.1,4,0.1,5.5c0.4-0.1,0.8-0.2,1.1-0.2c0.5,0,1,0.1,1.4,0.2
		c0.3,0.1,0.5,0.2,0.7,0.4L54,15.3z"/>
	<path fill="#FFFFFF" d="M52.9,6.9c0.1-0.4,0.1-1,0.3-1.5c0.1-0.3,0.2-0.7,0.4-0.9c0.1-0.2,0.2-0.3,0.4-0.4c0.5-0.2,0.9-0.3,1.3-0.3
		c0.4,0,0.6,0.1,0.8,0.2c0.1,0.1,0.2,0.1,0.3,0.1l3.2,1.2c0-0.3-0.1-0.6-0.1-0.8c0,0,0,0,0,0c0,0,0,0-0.1,0
		c-2.1-0.8-3.7-1.4-4.4-1.7c-0.2-0.1-0.3-0.1-0.3-0.1c0,0,0,0,0,0c0,0,0,0,0,0c-0.2,0-0.7-0.1-1.6-0.1c-0.6,0-1.5,0-2.3,0
		c-0.9,0-1.7,0-2.4,0l-0.1,3.2c2.1,0.4,3.8,1,4.7,1.4C52.8,7,52.9,7,52.9,6.9z"/>
	<path fill="#FFFFFF" d="M52.5,7.9v0.3c0.1,0,0.3-0.1,0.4-0.1C52.8,8,52.7,8,52.5,7.9C52.5,7.9,52.5,7.9,52.5,7.9z"/>
	<path fill="#FFFFFF" d="M7.7,43c0.4-0.1,0.7-0.1,0.7-0.1l0,0l40.5,0.4c0,0,0.3,0,0.7,0c0.4,0,0.9,0.1,1.4,0.3
		c0.3,0.1,0.6,0.3,0.9,0.5c0.9,0.8,1.4,1.9,1.6,2.8c0.1,0.5,0.2,1,0.2,1.4c0,0,0.1-0.1,0.1-0.1c0.3-0.3,0.5-0.8,0.8-1.3
		c0.5-1.1,1.1-2.5,1.6-4c0.3-0.9,0.6-1.9,0.9-2.9c0,0,0,0,0-0.1c0,0,0-0.1,0-0.1v0c0,0,0-0.1,0-0.1c0,0,0,0,0-0.1v0
		c0-1,0-2.7-0.1-4.7l-2.6,0l0-0.3c0,0,0-1.6,0-3.7c0-2.6,0-6,0.1-8.3l-0.2,0l-0.2,0l0,0c-0.3,0-0.8,0-1.3,0c-0.1,0-0.3,0-0.4,0v10.9
		c0,0.2,0,0.5,0,0.7l0,0.6l-0.3,0c0,0.3-0.1,0.5-0.2,0.7c-0.1,0.1-0.2,0.2-0.3,0.3c-0.2,0.1-0.3,0.2-0.5,0.2
		c-0.7,0-42.2-0.1-44.2-0.1c0,0,0,0,0,0l0,0.3H6.6c-0.1,2.6-0.1,4.8-0.1,6.2c0,0.3,0,0.6,0,0.9c0,0,0,0,0,0c0.2-0.1,0.4-0.2,0.6-0.2
		C7.3,43.1,7.5,43,7.7,43z"/>
	<path fill="#FFFFFF" d="M14.2,6.3c0.8-0.1,1.8-0.1,3-0.2c2.4-0.1,5.4-0.2,8.6-0.4c6.4-0.2,13.5-0.4,17.8-0.4c0.9,0,1.6,0,2.2,0
		c0.1,0,0.2,0,0.3,0l0.1-4.5C43.4,0.4,39.7,0,35.2,0c-0.9,0-1.8,0-2.8,0.1C27.5,0.2,24.1,0.6,21.6,1c-2.5,0.4-3.9,0.8-4.7,1.2
		c-0.4,0.2-0.7,0.4-0.8,0.4L16.1,3l-0.5,0.2v0l0,0l0,0c0,0-0.1,0-0.2,0.1c-0.2,0.1-0.4,0.2-0.7,0.3C14.1,4,13.4,4.4,12.7,5
		c-0.4,0.4-0.8,0.8-1.1,1.3l0,0l0,0l0,0l0,0c0,0,0,0,0,0.1c0,0.1-0.1,0.2-0.1,0.3c0.3-0.1,0.6-0.2,1-0.2C12.8,6.5,13.4,6.4,14.2,6.3
		z"/>
	<path fill="#FFFFFF" d="M36.2,33.9L36,34l-0.2,0c0,0-0.3,0-0.7,0s-1.1,0-1.9,0c-1.6,0-3.7,0.1-5.9,0.1c-4.4,0.1-9.3,0.2-10.9,0.3
		c-1.2,0-2.6,0.1-4,0.2c-1.4,0.1-2.9,0.3-4,0.6c0,0-0.1,0-0.1,0c7.7,0,42.1,0.1,42.7,0.1c0.1,0,0.2,0,0.2-0.1c0.1,0,0.1-0.1,0.2-0.2
		c0.1-0.1,0.1-0.2,0.1-0.4l-1.6-0.2l-0.1-0.1c-0.4-0.2-1.1-0.7-2.1-1.1c-0.9-0.5-2.1-0.9-3.1-1.2c-0.7-0.2-1.4-0.3-2-0.3
		c-1.9,0-3.5,0.5-4.6,1C36.8,33.4,36.2,33.9,36.2,33.9z"/>
	<path fill="#FFFFFF" d="M10.9,33.7c2-0.2,4-0.3,5.6-0.4c1.7-0.1,6.5-0.2,10.9-0.3c3.9-0.1,7.4-0.2,8.3-0.2c0.3-0.2,0.9-0.6,1.8-1
		c0.7-0.3,1.5-0.6,2.5-0.8c0.1-0.2,0.3-0.4,0.6-0.7c0.7-0.6,1.8-1.3,3.4-1.2c0.3,0,0.7,0,1,0.1c1.2,0.2,2.1,0.5,2.8,1
		c0.7,0.5,1.2,1.1,1.5,1.6c0.3,0.6,0.5,1.1,0.7,1.5c0.1,0.1,0.2,0.1,0.3,0.2l1,0.1v-11c-0.5-0.1-0.8-0.2-0.9-0.2l-0.1-0.1l0-0.1l0,0
		l0-0.6l0-0.2h0c0-1.4-0.1-4.7-0.1-5.8c0-0.2,0-0.3,0-0.3c0,0,0,0,0-0.1c0-0.1,0.1-0.2,0.1-0.3c0.1-0.1,0.1-0.1,0.2-0.2
		c0,0,0,0,0.1,0c0-0.5-0.2-2.2-0.2-3.5c0-0.5,0-1,0.1-1.4c0-0.1,0-0.2,0.1-0.3c0.2-0.4,0.4-0.7,0.7-1V8.2c0,0-0.1,0-0.1-0.1
		c-0.3-0.1-0.7-0.3-1.3-0.5c-1.1-0.3-2.4-0.6-4-0.7c-1.6-0.1-3.3-0.2-5.2-0.2c-3.3,0-6.9,0.2-10.5,0.3C26.7,7.2,23,7.3,19.7,7.5
		C16.4,7.6,13.6,7.8,12,8c-0.5,0.1-0.8,0.1-1,0.2c-0.1,0-0.2,0.1-0.2,0.1c0,0,0,0-0.1,0s0,0-0.1,0.1l0,0c0,0,0,0,0,0.1
		c0,0.1-0.1,0.2-0.1,0.4c-0.1,0.3-0.2,0.8-0.4,1.3c-0.3,1-0.5,2.4-0.8,3.8c-0.5,2.8-1,5.9-1.2,7.1c-0.1,0.7-0.3,1.8-0.4,3.1
		c-0.1,1.3-0.2,2.8-0.3,4.2c-0.2,2.5-0.3,4.9-0.4,6.2c0.4-0.2,0.8-0.3,1.2-0.4C8.9,34,9.9,33.8,10.9,33.7z"/>
	<path fill="#FFFFFF" d="M12,54.9L12,54.9c0.5,0,0.8-0.4,0.9-0.9V54c0-0.2-0.1-0.5-0.2-0.6c-0.1-0.2-0.3-0.3-0.5-0.3l-0.1,0
		c-0.4,0-0.8,0.4-0.8,0.9V54c0,0.2,0.1,0.5,0.2,0.6C11.6,54.8,11.8,54.9,12,54.9z"/>
	<path fill="#FFFFFF" d="M8.3,9.7C8.3,9.7,8.3,9.7,8.3,9.7C8,9.6,7.5,9.6,7,9.6C6.4,9.7,5.8,10,5.3,10.2c-0.5,0.3-0.9,0.7-1.1,1.2
		c-0.4,0.9-0.6,2-0.8,2.6l0.9-1.6h0.2c0,0,0.5,0,1.1,0c0.6,0,1.3,0.1,1.7,0.2c0.1,0,0.2,0.1,0.3,0.1C7.9,11.5,8.1,10.5,8.3,9.7z"/>
	<path fill="#FFFFFF" d="M8.9,54.2c0,0,0.1,0,0.1,0c0.3,0,0.6-0.1,0.9-0.4c0.2-0.2,0.4-0.6,0.4-1c0,0,0-0.1,0-0.1
		c0-0.4-0.1-0.7-0.3-1c-0.2-0.3-0.5-0.4-0.8-0.5c0,0-0.1,0-0.1,0c-0.3,0-0.6,0.1-0.9,0.4c-0.2,0.2-0.4,0.6-0.4,1c0,0,0,0.1,0,0.1
		c0,0.4,0.1,0.7,0.3,1S8.5,54.2,8.9,54.2z"/>
	<path fill="#FFFFFF" d="M3.4,15.2C3.4,15.2,3.4,15.2,3.4,15.2C3.4,15.2,3.4,15.2,3.4,15.2L3.4,15.2L3.4,15.2z"/>
	<path fill="#FFFFFF" d="M5,9.7c0.1-0.1,0.3-0.1,0.4-0.2c-0.1,0-0.2,0-0.4,0h0c-0.5,0-1,0.2-1.5,0.5c-0.4,0.3-0.8,0.8-1.2,1.3
		c-0.7,1-1.1,2.1-1.3,2.6c-0.1,0.1-0.1,0.2-0.1,0.3c0,0,0,0.1,0,0.1c0,0.1,0,0.1,0,0.2c0,0.2,0,0.3,0,0.4c0,0.1,0,0.1,0,0.1l0,0.1
		l-0.1,0.1c0,0-0.2,0.3-0.4,0.5c0,0,0,0.1-0.1,0.1c0,0,0,0.1,0,0.1c0,0.1,0,0.3,0,0.5c0,0.5-0.1,1.1-0.1,1.7C0.1,19.4,0,20.8,0,21.5
		c0.3-0.1,0.7-0.3,1-0.4c0.3-0.1,0.5-0.1,0.7-0.1c0.1,0,0.2,0,0.3,0c0-0.1,0-0.2,0.1-0.3c0.1-0.4,0.2-0.9,0.3-1.5
		c0.2-1.2,0.4-2.5,0.5-3.3c0-0.2,0-0.4,0-0.5v0c0-0.2-0.1-0.4-0.2-0.5c-0.1-0.1-0.2-0.2-0.2-0.2l0,0v0l-0.8-0.5h1.1
		c0.1-0.5,0.3-1.9,0.8-3C3.9,10.5,4.4,10.1,5,9.7z"/>
	<path fill="#FFFFFF" d="M2.5,21.5l-0.1,0.4l-0.3-0.2c0,0,0,0-0.1,0c-0.1,0-0.2,0-0.3,0c-0.2,0-0.3,0-0.6,0.1
		c-0.3,0.1-0.7,0.2-1,0.4c0,0,0,0,0.1,0c0.2,0.2,0.5,0.2,0.7,0.2c0.1,0,0.2,0,0.2,0l0,0l0,0c0.4,0,1-0.1,1.3-0.2
		c0.1,0,0.1,0,0.1-0.1c0,0,0-0.1,0-0.2c0-0.2,0.1-0.4,0.1-0.7C2.8,20.6,2.9,19.8,3,19c0-0.4,0.1-0.7,0.1-1.1c0,0.3-0.1,0.6-0.1,0.9
		C2.8,20.2,2.5,21.5,2.5,21.5z"/>
	<path fill="#FFFFFF" d="M59,37.1c-0.2,0.7-0.4,1.5-0.7,2.4l0.3,0C58.7,38.7,58.9,37.9,59,37.1z"/>
	<path fill="#FFFFFF" d="M57.6,52.4c-0.2,3.2-0.3,5.9-0.4,7.2c0.1,0,0.3-0.1,0.4-0.1c0-0.2,0-0.3,0-0.5c0.1-1.1,0.2-2.8,0.3-4.7
		c0.2-3.8,0.5-8.8,0.5-13.9l-0.4,0C58,43.6,57.8,48.4,57.6,52.4z"/>
	<path fill="#FFFFFF" d="M61.7,36.3c0.1-1.7,0.3-3.8,0.5-5.9c0.1-1.3,0.2-2.7,0.3-4l-1.1-0.1c-0.1,0.6-0.3,1.9-0.6,3.3
		c-0.1,0.3-0.1,0.7-0.2,1c-0.4,2.6-0.8,5.6-1.4,8.9l2.2,0C61.5,38.6,61.5,37.5,61.7,36.3z"/>
	<path fill="#FFFFFF" d="M61,49.1c0.1-1.6,0.2-3.2,0.2-4.6c0.1-1.8,0.1-3.3,0.1-4.1l-2.3,0.1c0,7.9-0.6,15.8-0.9,19
		c0.1,0,0.3-0.1,0.4-0.1c0-0.3,0.1-0.7,0.1-1.2l0.1-1.5h1.4c0-0.3,0-0.5,0-0.8c0-1.6,0.1-3,0.3-4.3C60.7,50.6,60.8,49.8,61,49.1z"/>
	<path fill="#FFFFFF" d="M89.3,16.2c-0.1,0-0.2-0.1-0.2-0.1c-0.9-0.4-2.2-0.9-3.7-1.5c-3.1-1.2-7.1-2.8-11.3-4.5
		c-4.3-1.7-8.7-3.4-12.3-4.8c0,0.2,0.1,0.5,0.1,0.8L89.3,16.2z"/>
	<path fill="#FFFFFF" d="M63.1,26.5c0,0.3,0,0.5-0.1,0.8c-0.3,3.2-0.6,6.5-0.8,9.1c-0.1,1.2-0.2,2.3-0.2,3l30.3-0.7
		c0-2.6,0-5.7,0-7.6c0-0.3,0-0.6,0-0.8L63.1,26.5z"/>
	<path fill="#FFFFFF" d="M58,34.7c0,0.9,0.1,1.7,0.1,2.5c0.2-0.8,0.4-1.5,0.5-1.9c0.4-1.3,0.8-3.3,1.2-5.1c0.4-1.8,0.7-3.5,0.8-4.2
		c0-0.2,0.1-0.3,0.1-0.3l0-0.1c0.2-1.5,0.3-2.8,0.3-3.6v0c0.1-0.9,0.1-1.7,0.1-2.6c0-4.7-0.6-9.7-1.2-13l-3.2-1.2
		C56.8,8.7,57.6,25.4,58,34.7z"/>
	<path fill="#FFFFFF" d="M61.5,22L61.5,22c0,0.8-0.1,1.9-0.3,3.3l1.3,0.2c0.2-2.6,0.4-4.9,0.4-6.5c0-0.1,0-0.1,0-0.2
		c0-2.3-0.4-5.5-0.9-8.5c-0.2-1.2-0.4-2.4-0.6-3.4l-1-0.4c0.5,3.3,1.1,8.1,1.1,12.8C61.6,20.2,61.6,21.1,61.5,22z"/>
	<path fill="#FFFFFF" d="M48.6,32.1c0.2,0.2,0.3,0.5,0.4,0.7c0.1,0,0.1,0.1,0.2,0.1c0,0,0,0,0-0.1c-0.3-0.7-0.8-1.5-1.7-2.1
		c-0.6-0.4-1.4-0.8-2.5-0.9c-0.3,0-0.7-0.1-1-0.1c-1.5,0-2.4,0.5-3,1c0,0-0.1,0.1-0.1,0.1c0.1,0,0.1,0,0.2,0c0,0,0,0,0,0
		c0.6-0.5,1.5-1,2.9-1c0.3,0,0.6,0,0.9,0.1c1,0.1,1.8,0.5,2.4,0.9C47.9,31.1,48.3,31.6,48.6,32.1z"/>
	<path fill="#FFFFFF" d="M44.8,30.4c-0.3,0-0.6-0.1-0.9-0.1c-0.7,0-1.3,0.1-1.7,0.3c0.1,0,0.2,0,0.4,0c0.7,0,1.5,0.1,2.3,0.4
		c0.8,0.2,1.6,0.5,2.3,0.8c0.3,0.1,0.6,0.3,0.9,0.4c-0.3-0.4-0.6-0.8-1.1-1.1C46.4,30.9,45.7,30.6,44.8,30.4z"/>
	<path fill="#FFFFFF" d="M62.1,7.2c0.1,0.6,0.2,1.2,0.3,1.8c0.6,3.2,1.1,7.1,1.1,9.8c0,0.1,0,0.1,0,0.2c0,1.6-0.2,4-0.4,6.6l6.4,0.8
		L68.7,9.6L62.1,7.2z"/>
	<path fill="#FFFFFF" d="M64.1,54.3c0-0.3-0.1-0.6-0.2-1c-0.1-0.8-0.4-1.9-0.6-2.8c0-0.2-0.1-0.3-0.1-0.4c-0.2,0.7-0.3,1.3-0.4,1.8
		c-0.1,0.6,0,0,0,0.9c-0.1,0.9-0.1,1.9-0.1,2.8c-0.1,1.9-0.1,3.7-0.1,4.4c0,0.2,0,0.3,0,0.3l0,1.1l-0.5,0c0.3,0.8,0.6,1.2,0.8,1.4
		c0.1,0.1,0.2,0.1,0.2,0.2c0,0,0,0,0,0c0,0,0.1-0.1,0.1-0.2c0.1-0.2,0.2-0.4,0.3-0.8c0.2-0.6,0.3-1.5,0.4-2.4
		c0.2-1.8,0.2-3.7,0.3-4.5c0-0.2,0-0.3,0-0.3c0,0,0,0,0-0.1C64.2,54.6,64.2,54.5,64.1,54.3z"/>
	<path fill="#FFFFFF" d="M63.6,48.8c0,0.1-0.1,0.2-0.1,0.2c0,0,0,0,0,0.1c0.3,0.6,0.5,1.5,0.7,2.3c0,0.2,0.1,0.3,0.1,0.5
		c0-0.3-0.1-0.6-0.1-0.9C64,50.1,63.8,49.4,63.6,48.8z"/>
	<path fill="#FFFFFF" d="M61.9,44.5c0,1-0.1,2-0.1,3.1c0.1-0.2,0.2-0.3,0.4-0.4c0.2-0.1,0.3-0.2,0.5-0.2c0.4-0.5,0.9-0.7,1.5-0.7
		c1.7,0,2.3,8.2,2.3,10.3c0,0.3,0.1,0.4,0.4,0.5c0-0.6,0.1-1.3,0.1-2.2c0.1-1.9,0.2-4.4,0.3-6.6c0.1-2,0.1-5.7,0.2-7.3
		c0-0.2,0-0.4,0-0.6L62,40.3C62,41.1,61.9,42.6,61.9,44.5z"/>
	<path fill="#FFFFFF" d="M27.2,61.5c-0.3,0-0.6,0-0.9,0c-0.2,0-0.4,0-0.5,0c-1,0-2.1,0-3.1,0c0.1,0.3,0.2,0.6,0.3,0.8
		c0.2,0.4,0.4,0.7,0.5,0.9c0.1,0.1,0.2,0.1,0.2,0.1h4.3c0-0.1-0.1-0.1-0.1-0.2C27.5,62.7,27.3,62.2,27.2,61.5z"/>
	<path fill="#FFFFFF" d="M16.6,51.9c0,0.2,0,0.5,0.1,0.7c0.1,0.4,0.2,0.8,0.3,1.1c0.1,0.2,0.2,0.4,0.4,0.5c0,0,0,0,0.1,0
		c0.1,0,0.1,0,0.3,0.1c0.2,0,0.5,0.1,0.9,0.1c0.7,0.1,1.7,0.1,2.8,0.2c2.2,0.1,5.1,0.1,7.7,0.1c2.9,0,5.5-0.1,7-0.1
		c0.5,0,0.9-0.1,1-0.1c0,0,0.1,0,0.1,0c0.1,0,0.2-0.1,0.3-0.2c0.1-0.1,0.2-0.3,0.2-0.5c0.1-0.4,0.2-1,0.2-1.3c0,0,0,0,0,0L16.6,51.9
		z"/>
	<path fill="#FFFFFF" d="M29.1,63.1c0.1-0.1,0.1-0.2,0.2-0.3c0.2-0.3,0.3-0.7,0.5-1.2c-0.2,0-0.5,0-0.7,0V63.1z"/>
	<path fill="#FFFFFF" d="M44.5,55.8L44.5,55.8c0.5,0,0.9-0.4,0.9-0.9c0,0,0-0.1,0-0.1c0-0.5-0.5-0.9-0.9-0.9h0
		c-0.5,0-0.8,0.4-0.8,0.9c0,0,0,0.1,0,0.1C43.6,55.4,44,55.8,44.5,55.8z"/>
	<path fill="#FFFFFF" d="M48.5,55.1c0,0,0.1,0,0.1,0c0.8-0.1,1.3-0.7,1.3-1.5c0-0.1,0-0.1,0-0.2c-0.1-0.8-0.8-1.4-1.5-1.4
		c0,0-0.1,0-0.1,0c-0.7,0.1-1.3,0.7-1.3,1.5c0,0.1,0,0.1,0,0.2C47.1,54.4,47.8,55.1,48.5,55.1z"/>
	<path fill="#FFFFFF" d="M28.1,62.4c0.2,0.4,0.3,0.6,0.5,0.8v-1.6c-0.3,0-0.5,0-0.7,0C27.9,61.8,28,62.1,28.1,62.4z"/>
	<path fill="#FFFFFF" d="M63.1,63.5L63.1,63.5c-0.1,0-0.3-0.1-0.5-0.2c-0.2-0.2-0.5-0.5-0.8-1c-0.1-0.3-0.3-0.6-0.4-1l-0.1,0
		c0.1,0.7,0.3,1.2,0.5,1.7c0.2,0.5,0.4,0.8,0.6,0.9c0.1,0.1,0.2,0.1,0.3,0.1c0.1,0,0.1,0,0.3-0.1c0.1-0.1,0.2-0.2,0.3-0.4
		c0,0,0-0.1,0-0.1C63.3,63.4,63.2,63.5,63.1,63.5L63.1,63.5z"/>
	<path fill="#FFFFFF" d="M10,55.1c0.6,0.2,1.5,0.4,2.4,0.6c0.6,0.1,1.2,0.2,1.6,0.3l-0.8-4.1l-3.6-1l-2.4-1c0,1.2,0,2.4,0.1,3.5
		c0,0.2,0,0.4,0,0.7c0.2,0.1,0.5,0.2,0.8,0.3C8.7,54.6,9.5,55,10,55.1z M10.9,53.9c0-0.6,0.5-1.1,1.1-1.1l0.1,0
		c0.3,0,0.6,0.2,0.7,0.4c0.2,0.2,0.3,0.5,0.3,0.8c0,0,0,0.1,0,0.1c0,0.6-0.5,1.1-1.1,1.1l-0.1,0c-0.3,0-0.6-0.2-0.7-0.4
		C11,54.6,10.9,54.3,10.9,53.9C10.9,54,10.9,54,10.9,53.9z M7.4,52.8c0-0.1,0-0.1,0-0.2c0-0.5,0.2-0.9,0.5-1.2C8.2,51.1,8.6,51,9,51
		c0,0,0.1,0,0.1,0c0.4,0,0.8,0.2,1,0.6c0.3,0.3,0.4,0.7,0.4,1.2c0,0.1,0,0.1,0,0.2c0,0.5-0.2,0.9-0.5,1.2c-0.3,0.3-0.7,0.5-1.1,0.5
		c0,0-0.1,0-0.1,0c-0.4,0-0.8-0.2-1-0.6C7.6,53.6,7.4,53.2,7.4,52.8z"/>
	<path fill="#FFFFFF" d="M42.2,57c0.1,0,0.1,0,0.2,0c0.4,0,0.9-0.1,1.4-0.2c1.1-0.2,2.5-0.4,3.3-0.7c1-0.3,2.7-0.9,3.5-1.2
		c0.1,0,0.2-0.1,0.2-0.1l0.2-4.3l-3.3,1.2l-4.5,1.1L42.2,57z M48.3,51.7c0,0,0.1,0,0.1,0c0.9,0,1.7,0.7,1.8,1.7c0,0.1,0,0.1,0,0.2
		c0,0.9-0.7,1.7-1.6,1.8c0,0-0.1,0-0.1,0c-0.9,0-1.7-0.7-1.8-1.7c0-0.1,0-0.1,0-0.2C46.7,52.6,47.4,51.8,48.3,51.7z M44.4,53.6
		L44.4,53.6c0.7,0,1.2,0.5,1.3,1.2c0,0,0,0.1,0,0.1c0,0.6-0.5,1.2-1.1,1.2l-0.1,0c-0.6,0-1.2-0.5-1.2-1.2c0,0,0-0.1,0-0.1
		C43.3,54.2,43.7,53.7,44.4,53.6z"/>
	<path fill="#FFFFFF" d="M56.3,59.8c0-0.1,0-0.1,0-0.2c0-0.4,0.1-1,0.1-1.7c0.1-1.4,0.2-3.4,0.3-5.5c0.2-3,0.3-6.3,0.4-9.1
		c-0.3,1-0.7,1.9-1,2.8c-0.5,1.2-1,2.2-1.6,2.8c-0.3,0.4-0.6,0.7-1,0.8l-0.6,0.2l0-0.6v0l0,0c0,0,0-0.1,0-0.1c0-0.3,0-1.1-0.2-1.9
		c-0.2-0.8-0.6-1.8-1.3-2.4c-0.1-0.1-0.4-0.2-0.6-0.3c-0.2-0.1-0.5-0.2-0.8-0.2c-0.5-0.1-1-0.1-1.1-0.1h0L8.4,43.8c0,0,0,0-0.1,0
		c-0.1,0-0.2,0-0.3,0c-0.2,0-0.5,0.1-0.7,0.1c-0.1,0-0.1,0-0.2,0.1c0,1.4,0,2.7,0,4c0,0.4,0,0.8,0,1.2l2.6,1l4,1.1l1,4.9l0.1,0.4
		l-0.4-0.1c0,0-0.7-0.1-1.7-0.3c-0.9-0.2-2-0.4-2.8-0.7c-0.7-0.3-1.8-0.7-2.6-1c0,0.9,0.1,1.7,0.2,2.2v0v0v0c0,0,0,0,0,0.1
		c0,0.1,0.1,0.2,0.1,0.4c0.1,0.3,0.4,0.7,0.8,1c0.3,0.2,0.7,0.4,1.2,0.5c0.5,0.1,1.2,0.2,2.1,0.3c0.9,0.1,1.9,0.1,3.1,0.2
		c2.3,0.1,5,0.1,7.7,0.1c1.1,0,2.1,0,3.1,0c0.2,0,0.4,0,0.6,0c2.5,0,5.6,0.2,8.4,0.4c2.8,0.2,5.3,0.4,6.5,0.5
		c0.8,0.1,2.2,0.2,3.8,0.2c1.6,0.1,3.3,0.1,4.8,0.1c0.6,0,1.2,0,1.6,0c0.5,0,0.8-0.1,1-0.1c0.8-0.1,2.3-0.4,3.6-0.7
		C56.1,59.8,56.2,59.8,56.3,59.8z M38.7,53.6c-0.1,0.4-0.2,0.9-0.5,1.2c-0.2,0.2-0.4,0.5-0.8,0.6c-0.1,0-0.1,0-0.2,0
		c-0.1,0-0.1,0-0.2,0c-0.2,0-0.4,0-0.6,0.1c-0.5,0-1.1,0.1-1.9,0.1c-1.5,0-3.4,0.1-5.5,0.1c-2.2,0-4.5,0-6.5-0.1
		c-2-0.1-3.7-0.2-4.7-0.3c-0.3,0-0.5-0.1-0.7-0.2c-0.1,0-0.2-0.1-0.3-0.1c-0.3-0.2-0.5-0.5-0.7-0.8c-0.2-0.3-0.3-0.6-0.3-0.9
		c-0.1-0.6-0.2-1.2-0.2-1.5c0-0.2,0-0.3,0-0.3l0-0.4l23,0.5l0,0.4c0,0,0,0.2,0,0.5C38.8,52.8,38.8,53.2,38.7,53.6z M51.5,55.2
		l-0.2,0.1c0,0-2.7,1-4,1.4c-0.9,0.3-2.3,0.5-3.4,0.7c-1.1,0.2-2,0.3-2,0.3l-0.4,0.1l1.3-5.5l4.8-1.1l4.1-1.4L51.5,55.2z"/>
	<path fill="#FFFFFF" d="M60.9,61.9c-0.1-0.2-0.1-0.4-0.1-0.7l-1.1-0.1c-0.1,0-0.2,0-0.3,0.1L55.8,62c0.1,0.3,0.2,0.6,0.3,0.9
		c0.2,0.5,0.4,0.8,0.6,0.9C56.8,64,56.9,64,57,64h4.8c0-0.1-0.1-0.1-0.1-0.2C61.3,63.3,61.1,62.7,60.9,61.9z"/>
</g>
</svg>
