<?xml version="1.0" encoding="UTF-8"?>
<!DOCTYPE svg PUBLIC "-//W3C//DTD SVG 1.1//EN" "http://www.w3.org/Graphics/SVG/1.1/DTD/svg11.dtd">
<!-- Creator: CorelDRAW X7 -->
<svg xmlns="http://www.w3.org/2000/svg" xml:space="preserve" width="5.87489in" height="1.21508in" version="1.1" style="shape-rendering:geometricPrecision; text-rendering:geometricPrecision; image-rendering:optimizeQuality; fill-rule:evenodd; clip-rule:evenodd"
viewBox="0 0 5875 1215"
 xmlns:xlink="http://www.w3.org/1999/xlink">
 <defs>
  <style type="text/css">
   <![CDATA[
    .fil0 {fill:white}
    .fil1 {fill:#E7FF61;fill-rule:nonzero}
   ]]>
  </style>
 </defs>
 <g id="Layer_x0020_1">
  <metadata id="CorelCorpID_0Corel-Layer"/>
  <g id="_1787777345104">
   <path class="fil0" d="M1564 451c-101,-32 -197,-117 -277,-61l-80 0c21,-38 50,-70 97,-93 -58,-18 1,7 -54,-32 -105,-74 -275,-221 -405,-224 -118,-2 -516,74 -591,125 44,-8 140,-42 233,-60 56,-11 339,-61 387,-32 35,20 21,84 19,125 -7,128 -25,429 -47,545 -6,36 -25,41 -92,54 -200,39 -495,36 -689,7l-6 59c28,16 36,27 76,42 142,52 386,33 533,6 80,-14 117,-29 182,-56 3,35 2,77 -9,106 -16,-24 6,-54 -10,-74l-11 79c-69,20 -167,49 -245,41 54,4 169,-36 227,-49l2 -59c-51,7 -106,24 -157,35 -31,7 -52,2 -66,27 -4,9 -9,21 -14,30 -4,9 -11,27 -20,32 -97,21 -293,19 -378,-20l-11 -68 -87 -38c-7,75 28,65 75,97 -35,-2 -55,-26 -82,-37 13,154 -44,195 312,213 127,7 260,4 387,-8 37,-4 80,-13 115,-15 -67,102 -479,60 -619,49 -111,-9 -213,-3 -225,-122 -8,-73 -22,-269 6,-326 124,56 633,27 763,-19 28,-163 52,-398 52,-569 -73,9 -118,69 -122,148l73 -1 -1 185 -140 3c1,-140 -29,-322 157,-368 4,-1 13,-3 16,-4 11,-4 6,-1 12,-7 -48,-37 -152,-13 -218,-3 -73,11 -143,24 -214,40 -65,14 -141,33 -197,57 -38,17 -45,27 -62,65l-26 71c-11,24 3,13 -20,17 -9,-15 1,-39 7,-63 6,-22 13,-39 18,-60 -51,14 -75,75 -78,140l61 1 -1 163 -118 1c-6,-118 -9,-308 129,-347 48,-14 20,-2 52,-26 12,-9 37,-22 54,-29 140,-65 335,-114 505,-135 118,-15 168,-17 261,39 123,76 344,238 470,331 16,12 28,22 44,34 8,5 13,9 23,16l24 22zm1694 91l61 -10 0 -91 -243 0 0 91 60 10 0 508 -60 10 0 91 497 0 0 -172 -92 0c-2,16 -7,42 -10,61l-213 0 0 -498zm-406 508l-60 10 0 91 243 0 0 -91 -61 -10 -193 -609 -223 0 0 91 61 10 -162 508 -61 10 0 91 243 0 0 -91 -61 -10 35 -112 204 0 35 112zm-137 -437l67 214 -134 0 67 -214zm-826 -172l0 172 91 0 10 -60 198 0 -320 598 497 0 0 -162 -91 0 -10 51 -208 0 320 -599 -487 0zm-102 101l61 -10 0 -91 -243 0 0 91 60 10 0 508 -60 10 0 91 243 0 0 -91 -61 -10 0 -508zm-573 295c27,0 87,19 112,91l76 223 162 0 0 -91 -68 -10 -64 -170c-9,-24 -20,-40 -36,-53 77,-31 127,-106 127,-188 0,-110 -88,-198 -198,-198l-329 0 0 91 61 10 0 95c-22,58 -50,113 -96,158l-25 28c46,-6 88,-25 121,-52l0 279 -61 10 0 91 243 0 0 -91 -61 -10 0 -213 36 0zm188 -188c0,43 -35,76 -77,76l-147 0 0 -172 147 0c42,0 77,33 77,76l0 20zm-260 -259c5,-11 11,-22 17,-32 6,-10 12,-21 19,-30 10,-14 15,-19 22,-30 -22,-24 -189,-126 -232,-122 -47,24 -63,538 -77,656l-7 33c-3,8 -3,7 -6,11 -7,-125 0,-281 9,-406 4,-70 28,-310 53,-356 51,0 266,154 302,184 -6,12 -24,31 -44,70 -4,7 -7,14 -11,22l-45 0z"/>
   <path class="fil1" d="M3770 1151l0 -320 0 -321 -142 0 0 -69 375 0 0 69 -149 0 0 641 -84 0zm513 -397c30,0 55,-11 77,-33 19,-19 29,-48 29,-87 0,-36 -11,-66 -33,-87 -24,-25 -57,-37 -98,-37l-80 0 0 244 105 0zm-7 -313c61,0 111,19 149,58 32,32 48,77 48,135 0,53 -16,97 -48,131 -22,24 -43,40 -65,47l131 339 -88 0 -123 -328 -102 0 0 328 -84 0 0 -710 182 0zm342 710l-87 0 182 -710 73 0 182 710 -87 0 -51 -207 -161 0 -51 207zm135 -517l-7 0 -58 240 123 0 -58 -240zm648 -193l0 710 -102 0 -189 -532 -4 0 0 532 -83 0 0 -710 102 0 189 532 4 0 0 -532 83 0zm237 266c51,44 102,80 153,109 56,32 84,78 84,138 0,61 -18,110 -55,146 -34,34 -81,51 -142,51 -58,0 -103,-16 -135,-47 -38,-39 -58,-85 -58,-139l0 -36 84 0 0 33c0,39 10,68 29,87 20,20 44,29 73,29 39,0 68,-9 87,-29 22,-22 33,-50 33,-84 0,-36 -17,-65 -51,-87 -61,-39 -118,-80 -171,-124 -39,-31 -59,-74 -62,-127 -2,-54 16,-99 55,-135 36,-34 76,-51 120,-51 53,0 95,15 124,44 36,36 53,87 51,153l-84 0c5,-42 -5,-74 -29,-99 -17,-17 -38,-25 -62,-25 -24,0 -45,8 -62,25 -22,22 -33,48 -33,77 0,31 17,62 51,91z"/>
  </g>
 </g>
</svg>
